PathFileType	4	(X/Y/Z)	C:\Users\WrightLab\Desktop\Jo\P3_14.trc
DataRate	CameraRate	NumFrames	NumMarkers	Units	OrigDataRate	OrigDataStartFrame	OrigNumFrames
100.00	100.00	       8	19	mm	100.00	169	       672
Frame#	Time	Headset_Front			Headset_Back			Headset_Left			Headset_Right			Left_Shoulder			Right_Shoulder			Sternum			C7			Left Elbow			Right Elbow			Left Wrist			Right Wrist			Left ASIS			Right ASIS			S2			Left Knee			Right Knee			Left Ankle			Right Ankle			
		X1	Y1	Z1	X2	Y2	Z2	X3	Y3	Z3	X4	Y4	Z4	X5	Y5	Z5	X6	Y6	Z6	X7	Y7	Z7	X8	Y8	Z8	X9	Y9	Z9	X10	Y10	Z10	X11	Y11	Z11	X12	Y12	Z12	X13	Y13	Z13	X14	Y14	Z14	X15	Y15	Z15	X16	Y16	Z16	X17	Y17	Z17	X18	Y18	Z18	X19	Y19	Z19	

169	1.680	-618.18060	1477.84058	-399.95685	-654.24609	1592.94678	-684.14691				-741.05701	1511.42749	-498.33411	-449.01151	1324.88281	-618.10974	-808.18939	1310.02710	-663.78577	-634.76788	1200.89673	-512.55414	-630.07233	1370.58972	-693.84656	-359.09384	998.19580	-596.98486	-864.60327	961.40387	-689.85065	-380.06116	825.16058	-478.09991	-895.52020	790.22198	-541.53625	-527.69067	835.97278	-528.02734	-776.44824	848.54572	-552.10266	-624.69263	915.47491	-753.54889	-534.54608	415.17413	-608.65564	-795.15820	454.91882	-431.63123	-540.64270	93.31207	-694.51221	-804.39282	116.38151	-456.85648	
170	1.690	-619.42767	1478.12964	-392.66406	-655.70349	1591.90100	-675.92725				-742.08569	1511.02209	-489.86230	-450.48309	1324.44824	-611.72961	-809.53625	1308.92688	-654.50323	-635.07745	1199.78931	-504.55081	-631.47125	1369.95959	-684.98877	-360.18134	997.35742	-589.25323	-865.77979	960.78156	-681.48621	-381.39636	825.00745	-468.54846	-894.96173	788.94623	-533.29810	-528.84644	835.54175	-520.47467	-777.55994	848.54407	-542.82288	-626.26715	914.60242	-744.53302	-533.49329	415.00998	-604.94690	-796.14056	453.40247	-424.85065	-539.62579	93.64005	-693.85846	-809.74261	114.47775	-428.46161	
171	1.700				-657.29114	1590.68359	-668.12933	-535.08435	1542.52185	-568.44904	-743.18164	1510.35388	-481.31927	-451.73935	1323.96936	-603.54218	-810.83759	1308.61938	-645.81293	-635.64264	1199.52002	-495.56622	-633.10876	1369.28381	-677.10516	-361.38260	997.09778	-580.83771	-866.91962	960.06372	-671.75146	-382.84561	824.46100	-460.24127	-896.02594	787.60260	-523.18982	-529.33136	835.24487	-512.86755	-778.85071	848.35406	-533.99091	-628.38422	914.68127	-736.76471	-533.31708	414.87329	-602.16187	-796.57935	451.18042	-418.02225	-539.70154	93.91953	-692.01917	-813.93091	114.58881	-403.10556	
172	1.710				-658.74091	1589.82495	-660.30682	-536.16986	1541.30188	-561.64520	-741.96777	1508.23291	-472.66788	-453.04010	1322.56030	-595.21814	-812.93701	1307.55139	-636.76697	-636.42877	1198.66101	-487.05130	-634.72369	1368.28809	-668.49060	-363.13522	996.20465	-573.18066	-868.40662	959.31036	-663.38361	-384.02884	825.17645	-452.00333	-896.79132	787.53473	-514.64093	-529.73785	833.49927	-504.52060	-778.09814	846.97516	-524.17090	-630.26221	913.17853	-727.42883	-533.98572	413.66843	-598.47467	-798.01373	449.64728	-408.85065	-540.15137	93.91531	-691.53461	-818.70392	115.76246	-377.80063	
173	1.720				-660.30103	1588.55432	-652.51367	-537.52020	1540.91272	-553.35388	-744.96826	1509.09229	-464.89124	-454.85852	1321.98535	-588.23395	-813.89630	1306.29382	-627.00098	-636.52179	1197.32117	-478.43475	-636.46063	1367.18213	-660.66321	-364.85406	995.06628	-565.44336	-869.90393	958.48102	-653.67719	-385.77197	824.40454	-443.66544	-898.57214	786.88251	-504.86392	-530.03699	831.94238	-498.65887	-780.94928	846.46521	-513.73914	-632.48047	912.27106	-718.72052	-533.87781	413.68716	-594.06152	-798.56946	448.47400	-401.22559	-540.21173	93.87294	-691.54193	-822.80682	117.96428	-354.49200	
174	1.730				-661.89624	1587.21899	-644.62476	-538.76538	1540.38232	-546.31787	-746.00201	1508.32788	-456.74490	-455.84045	1321.30371	-581.24579	-815.58759	1305.82227	-618.35333	-637.93994	1197.23169	-471.18951	-638.13861	1366.30505	-652.71973	-366.42099	994.84161	-557.76868	-871.51538	957.56067	-644.38086	-387.32831	824.04382	-435.57794	-898.59875	784.88171	-495.73190	-530.57941	831.24042	-489.43518	-782.11694	845.72589	-504.46838	-635.14264	911.50702	-710.75604	-534.26837	412.52780	-591.07190	-799.90582	447.58197	-394.22485	-541.36493	94.09235	-689.59021	-826.45898	118.93654	-329.35757	
175	1.740				-663.41620	1586.15967	-636.24634	-539.93433	1539.33508	-538.88068	-747.20544	1507.05261	-448.33862	-456.86444	1320.21362	-574.38367	-817.16833	1304.59045	-608.73547	-637.92242	1195.90588	-462.11621	-639.81805	1364.99231	-643.10992	-367.85391	993.52026	-550.98572	-873.23047	956.46100	-634.29407	-388.95331	823.21796	-427.79990	-900.82275	784.49170	-486.93988	-530.49982	830.52655	-483.58545	-782.02570	844.87952	-493.76068	-637.26727	909.82263	-701.01715	-534.40576	411.99847	-587.26196	-800.52325	446.05331	-386.34668	-541.49579	94.73696	-689.48273	-828.88458	121.22321	-312.25418	
176	1.750				-664.90680	1585.08179	-628.38763	-541.09509	1537.73486	-529.82635	-748.47845	1506.55005	-440.04022	-458.32068	1318.88257	-566.81281	-818.42126	1303.11560	-598.97858	-638.75348	1195.08057	-453.07501	-641.65546	1363.75720	-635.14075	-369.37607	991.96014	-543.49194	-875.20453	955.55243	-625.21991	-390.07083	822.00781	-419.43948	-901.40228	782.97101	-476.67059	-531.13849	829.26190	-473.93274	-780.47198	841.92035	-483.42886	-639.75421	908.70184	-692.40479	-535.76367	411.49399	-582.66260	-802.16803	445.11444	-377.15118	-541.72449	95.13863	-688.54028	-831.07495	122.66007	-295.12839	
